<svg xmlns="http://www.w3.org/2000/svg" viewBox="0 0 60 40">
  <rect width="60" height="40" fill="#b22234"/>
  <g fill="#fff">
    <rect y="3.0769" width="60" height="3.0769"/>
    <rect y="9.2308" width="60" height="3.0769"/>
    <rect y="15.3846" width="60" height="3.0769"/>
    <rect y="21.5385" width="60" height="3.0769"/>
    <rect y="27.6923" width="60" height="3.0769"/>
    <rect y="33.8462" width="60" height="3.0769"/>
  </g>
  <rect width="24" height="21.5385" fill="#3c3b6e"/>
  <g fill="#fff">
    <g transform="scale(0.8)">
      <g transform="translate(2.5,2.5)">
        <circle r="0.8"/>
      </g>
      <g transform="translate(7.5,2.5)">
        <circle r="0.8"/>
      </g>
      <g transform="translate(12.5,2.5)">
        <circle r="0.8"/>
      </g>
      <g transform="translate(17.5,2.5)">
        <circle r="0.8"/>
      </g>
      <g transform="translate(22.5,2.5)">
        <circle r="0.8"/>
      </g>

      <g transform="translate(5,5.5)">
        <circle r="0.8"/>
      </g>
      <g transform="translate(10,5.5)">
        <circle r="0.8"/>
      </g>
      <g transform="translate(15,5.5)">
        <circle r="0.8"/>
      </g>
      <g transform="translate(20,5.5)">
        <circle r="0.8"/>
      </g>

      <g transform="translate(2.5,8.5)">
        <circle r="0.8"/>
      </g>
      <g transform="translate(7.5,8.5)">
        <circle r="0.8"/>
      </g>
      <g transform="translate(12.5,8.5)">
        <circle r="0.8"/>
      </g>
      <g transform="translate(17.5,8.5)">
        <circle r="0.8"/>
      </g>
      <g transform="translate(22.5,8.5)">
        <circle r="0.8"/>
      </g>

      <g transform="translate(5,11.5)">
        <circle r="0.8"/>
      </g>
      <g transform="translate(10,11.5)">
        <circle r="0.8"/>
      </g>
      <g transform="translate(15,11.5)">
        <circle r="0.8"/>
      </g>
      <g transform="translate(20,11.5)">
        <circle r="0.8"/>
      </g>

      <g transform="translate(2.5,14.5)">
        <circle r="0.8"/>
      </g>
      <g transform="translate(7.5,14.5)">
        <circle r="0.8"/>
      </g>
      <g transform="translate(12.5,14.5)">
        <circle r="0.8"/>
      </g>
      <g transform="translate(17.5,14.5)">
        <circle r="0.8"/>
      </g>
      <g transform="translate(22.5,14.5)">
        <circle r="0.8"/>
      </g>

      <g transform="translate(5,17.5)">
        <circle r="0.8"/>
      </g>
      <g transform="translate(10,17.5)">
        <circle r="0.8"/>
      </g>
      <g transform="translate(15,17.5)">
        <circle r="0.8"/>
      </g>
      <g transform="translate(20,17.5)">
        <circle r="0.8"/>
      </g>
    </g>
  </g>
</svg>

